<svg version="1.2" xmlns="http://www.w3.org/2000/svg" viewBox="0 0 512 511" width="512" height="511">
	<title>star-svg</title>
	<style>
		.s0 { fill: #000000 } 
	</style>
	<path id="Layer" class="s0" d="m502.7 224.8l-111.7 98 32.9 145.1c2.4 10.6-1.7 21.6-10.6 28.1-8.8 6.4-20.6 6.9-29.9 1.3l-127.4-76.2-127.5 76.2c-4.3 2.5-9.1 3.8-13.9 3.8-5.6 0-11.2-1.7-16-5.1-8.8-6.4-13-17.5-10.5-28.1l32.9-145.1-111.7-98c-8.2-7.2-11.3-18.5-8-28.9 3.4-10.4 12.6-17.7 23.4-18.7l147.8-13.4 58.5-136.8c4.3-10 14.1-16.5 25-16.5 10.9 0 20.7 6.5 25 16.5l58.5 136.8 147.7 13.4c10.9 1 20.1 8.3 23.5 18.7 3.3 10.4 0.2 21.7-8 28.9z"/>
</svg>